<svg width="20" height="20" viewBox="0 0 20 20" fill="none" xmlns="http://www.w3.org/2000/svg">
<path fill-rule="evenodd" clip-rule="evenodd" d="M9.99992 19.1667C4.93731 19.1667 0.833252 15.0626 0.833252 10C0.833252 4.93743 4.93731 0.833374 9.99992 0.833374C15.0625 0.833374 19.1666 4.93743 19.1666 10C19.1666 15.0626 15.0625 19.1667 9.99992 19.1667ZM16.1662 14.2706C17.0071 13.0586 17.4999 11.5869 17.4999 10C17.4999 5.8579 14.1421 2.50004 9.99992 2.50004C5.85778 2.50004 2.49992 5.8579 2.49992 10C2.49992 11.5869 2.99274 13.0586 3.83367 14.2706C4.77155 13.0318 6.97542 12.5 9.99992 12.5C13.0244 12.5 15.2283 13.0318 16.1662 14.2706ZM14.9705 15.6165C14.7266 14.7395 12.9744 14.1667 9.99992 14.1667C7.02544 14.1667 5.27326 14.7395 5.02935 15.6165C6.35267 16.7885 8.0932 17.5 9.99992 17.5C11.9066 17.5 13.6472 16.7885 14.9705 15.6165ZM9.99992 5.00004C7.9825 5.00004 6.66659 6.46317 6.66659 8.33337C6.66659 11.1895 8.13397 12.5 9.99992 12.5C11.8483 12.5 13.3333 11.2331 13.3333 8.50004C13.3333 6.60136 12.0117 5.00004 9.99992 5.00004ZM8.33325 8.33337C8.33325 10.2244 9.01509 10.8334 9.99992 10.8334C10.9813 10.8334 11.6666 10.2487 11.6666 8.50004C11.6666 7.45872 11.013 6.66671 9.99992 6.66671C8.9447 6.66671 8.33325 7.34656 8.33325 8.33337Z" fill="#C4C4C4"/>
</svg>
